HIERARCHY
ROOT hip
{
  OFFSET 0 0 0
  CHANNELS 6 Xposition Yposition Zposition Zrotation Yrotation Xrotation
  JOINT abdomen
  {
    OFFSET 0 20.6881 -0.73152
    CHANNELS 3 Zrotation Xrotation Yrotation
    JOINT chest
    {
      OFFSET 0 11.7043 -0.48768
      CHANNELS 3 Zrotation Xrotation Yrotation
      JOINT neck
      {
        OFFSET 0 22.1894 -2.19456
        CHANNELS 3 Zrotation Xrotation Yrotation
        JOINT head
        {
          OFFSET -0.24384 7.07133 1.2192
          CHANNELS 3 Zrotation Xrotation Yrotation
          JOINT leftEye
          {
            OFFSET 4.14528 8.04674 8.04672
            CHANNELS 3 Zrotation Xrotation Yrotation
            End Site
            {
              OFFSET 1 0 0
            }
          }
          JOINT rightEye
          {
            OFFSET -3.6576 8.04674 8.04672
            CHANNELS 3 Zrotation Xrotation Yrotation
            End Site
            {
              OFFSET 1 0 0
            }
          }
        }
      }
      JOINT rCollar
      {
        OFFSET -2.68224 19.2634 -4.8768
        CHANNELS 3 Zrotation Xrotation Yrotation
        JOINT rShldr
        {
          OFFSET -8.77824 -1.95073 1.46304
          CHANNELS 3 Zrotation Xrotation Yrotation
          JOINT rForeArm
          {
            OFFSET -28.1742 -1.7115 0.48768
            CHANNELS 3 Zrotation Xrotation Yrotation
            JOINT rHand
            {
              OFFSET -22.5879 0.773209 7.07136
              CHANNELS 3 Zrotation Xrotation Yrotation
              JOINT rThumb1
              {
                OFFSET -1.2192 -0.487915 3.41376
                CHANNELS 3 Zrotation Xrotation Yrotation
                JOINT rThumb2
                {
                  OFFSET -3.37035 -0.52449 3.41376
                  CHANNELS 3 Zrotation Xrotation Yrotation
                  End Site
                  {
                    OFFSET -1.78271 -1.18214 1.43049
                  }
                }
              }
              JOINT rIndex1
              {
                OFFSET -7.75947 0.938293 5.60832
                CHANNELS 3 Zrotation Xrotation Yrotation
                JOINT rIndex2
                {
                  OFFSET -2.54057 -0.884171 1.56538
                  CHANNELS 3 Zrotation Xrotation Yrotation
                  End Site
                  {
                    OFFSET -1.62519 -0.234802 1.16502
                  }
                }
              }
              JOINT rMid1
              {
                OFFSET -8.24714 1.18213 3.41376
                CHANNELS 3 Zrotation Xrotation Yrotation
                JOINT rMid2
                {
                  OFFSET -3.10165 -0.590103 1.0647
                  CHANNELS 3 Zrotation Xrotation Yrotation
                  End Site
                  {
                    OFFSET -2.48547 -0.328903 0.83742
                  }
                }
              }
              JOINT rRing1
              {
                OFFSET -8.82822 0.546677 1.51678
                CHANNELS 3 Zrotation Xrotation Yrotation
                JOINT rRing2
                {
                  OFFSET -2.60934 -0.819778 -0.0198488
                  CHANNELS 3 Zrotation Xrotation Yrotation
                  End Site
                  {
                    OFFSET -2.33842 -0.294052 0.168128
                  }
                }
              }
              JOINT rPinky1
              {
                OFFSET -8.27202 -0.0477905 -0.4584
                CHANNELS 3 Zrotation Xrotation Yrotation
                JOINT rPinky2
                {
                  OFFSET -1.82734 -0.647385 -0.700984
                  CHANNELS 3 Zrotation Xrotation Yrotation
                  End Site
                  {
                    OFFSET -1.69225 -0.51767 -0.607171
                  }
                }
              }
            }
          }
        }
      }
      JOINT lCollar
      {
        OFFSET 2.68224 19.2634 -4.8768
        CHANNELS 3 Zrotation Xrotation Yrotation
        JOINT lShldr
        {
          OFFSET 8.77824 -1.95073 1.46304
          CHANNELS 3 Zrotation Xrotation Yrotation
          JOINT lForeArm
          {
            OFFSET 28.1742 -1.7115 0.48768
            CHANNELS 3 Zrotation Xrotation Yrotation
            JOINT lHand
            {
              OFFSET 22.5879 0.773209 7.07136
              CHANNELS 3 Zrotation Xrotation Yrotation
              JOINT lThumb1
              {
                OFFSET 1.2192 -0.487915 3.41376
                CHANNELS 3 Zrotation Xrotation Yrotation
                JOINT lThumb2
                {
                  OFFSET 3.37035 -0.52449 3.41376
                  CHANNELS 3 Zrotation Xrotation Yrotation
                  End Site
                  {
                    OFFSET 1.78271 -1.18214 1.43049
                  }
                }
              }
              JOINT lIndex1
              {
                OFFSET 7.75947 0.938293 5.60832
                CHANNELS 3 Zrotation Xrotation Yrotation
                JOINT lIndex2
                {
                  OFFSET 2.54057 -0.884171 1.56538
                  CHANNELS 3 Zrotation Xrotation Yrotation
                  End Site
                  {
                    OFFSET 1.62519 -0.234802 1.16502
                  }
                }
              }
              JOINT lMid1
              {
                OFFSET 8.24714 1.18213 3.41376
                CHANNELS 3 Zrotation Xrotation Yrotation
                JOINT lMid2
                {
                  OFFSET 3.10165 -0.590103 1.0647
                  CHANNELS 3 Zrotation Xrotation Yrotation
                  End Site
                  {
                    OFFSET 2.48547 -0.328903 0.83742
                  }
                }
              }
              JOINT lRing1
              {
                OFFSET 8.82822 0.546677 1.51678
                CHANNELS 3 Zrotation Xrotation Yrotation
                JOINT lRing2
                {
                  OFFSET 2.60934 -0.819778 -0.0198488
                  CHANNELS 3 Zrotation Xrotation Yrotation
                  End Site
                  {
                    OFFSET 2.33842 -0.294052 0.168128
                  }
                }
              }
              JOINT lPinky1
              {
                OFFSET 8.27202 -0.0477905 -0.4584
                CHANNELS 3 Zrotation Xrotation Yrotation
                JOINT lPinky2
                {
                  OFFSET 1.82734 -0.647385 -0.700984
                  CHANNELS 3 Zrotation Xrotation Yrotation
                  End Site
                  {
                    OFFSET 1.69225 -0.51767 -0.607171
                  }
                }
              }
            }
          }
        }
      }
    }
  }
  JOINT rButtock
  {
    OFFSET -8.77824 4.35084 1.2192
    CHANNELS 3 Zrotation Xrotation Yrotation
    JOINT rThigh
    {
      OFFSET 0 -1.70687 -2.19456
      CHANNELS 3 Zrotation Xrotation Yrotation
      JOINT rShin
      {
        OFFSET 0 -36.8199 0.73152
        CHANNELS 3 Zrotation Xrotation Yrotation
        JOINT rFoot
        {
          OFFSET 0.73152 -45.1104 -5.12064
          CHANNELS 3 Zrotation Xrotation Yrotation
          End Site
          {
            OFFSET -1.1221 -3.69964 12.103
          }
        }
      }
    }
  }
  JOINT lButtock
  {
    OFFSET 8.77824 4.35084 1.2192
    CHANNELS 3 Zrotation Xrotation Yrotation
    JOINT lThigh
    {
      OFFSET 0 -1.70687 -2.19456
      CHANNELS 3 Zrotation Xrotation Yrotation
      JOINT lShin
      {
        OFFSET 0 -36.8199 0.73152
        CHANNELS 3 Zrotation Xrotation Yrotation
        JOINT lFoot
        {
          OFFSET -0.73152 -45.1104 -5.12064
          CHANNELS 3 Zrotation Xrotation Yrotation
          End Site
          {
            OFFSET 1.1221 -3.69964 12.103
          }
        }
      }
    }
  }
}
MOTION
Frames:	4
Frame Time:	0.03333
1.5901299582765205 54.95100021362305 -12.127999965741765 3.280000059969282 32.34560049392974 2.166699929268125 -4.932839885098194 17.406600495994095 0.32561400747643116 5.757759824087893 -7.503499826882499 0.6479270058713363 -7.542640225921257 20.166099373516797 -11.088900056201265 10.767199853840957 -35.005699628461244 -19.30599926454648 -0.0 0.0 0.0 -0.0 0.0 0.0 2.142709929439528e-13 3.939090050191211e-14 -1.4058200198192482e-12 27.211600011830445 12.242899790062648 42.84139851223201 -14.57809963238134 -7.430770265052911 26.72439920323885 -0.3722779932880905 17.092799407408908 2.476900014056836 3.738039920614431e-09 3.000229903547094e-10 3.69390018274508e-09 6.498729976147284e-09 8.429860404628121e-10 6.329900170115173e-09 3.7380498598478105e-09 3.0004401183330723e-10 3.6938898459423655e-09 7.730910121524428 5.474879855648998 0.41731399283890674 3.738039920614431e-09 3.0005198806809433e-10 3.69390018274508e-09 2.90554006136521 0.9651829962377875 0.10290200252939893 3.738039920614431e-09 3.000200085846956e-10 3.69390018274508e-09 10.278599710243157 0.7318009818271524 0.025912300303053633 3.738029981381052e-09 3.000259969728068e-10 3.69391012197846e-09 2.221669932038622 -0.7334870246959406 -0.20891999872313852 2.141229964000514e-13 3.93768991892656e-14 -1.4062100182540052e-12 -99.27990049201853 62.85299900672312 37.75540059961956 28.29100041957695 -38.429598327307765 -81.15210032156278 3.1011799445262356 -43.71259938615089 7.721749984073794 3.158780007760215e-09 5.1279498702313565e-09 2.923930036712292e-09 5.354750056165162e-09 8.51850981863321e-09 5.128779995003218e-09 3.158770068526835e-09 5.1279598094647355e-09 2.923930036712292e-09 -7.730910121524428 5.474879855648998 -0.41731399283890674 3.158780007760215e-09 5.1279498702313565e-09 2.923930036712292e-09 -2.90554006136521 0.9651829962377875 -0.10290200252939893 3.158770068526835e-09 5.1279598094647355e-09 2.923930036712292e-09 -10.278599710243157 0.7318009818271524 -0.025912300303053633 3.158770068526835e-09 5.1279598094647355e-09 2.923930036712292e-09 -2.221669932038622 -0.7334870246959406 0.20891999872313852 -2.0321699793705798e-16 0.0 -3.882510030490358e-19 -41.48650071676575 -55.48780111902327 -26.478599478030308 -0.748063021910718 54.63110073671233 1.355589992449958 1.973519981425362 10.778800076372578 3.0962701057300546 2.0321699793705798e-16 0.0 3.882510030490358e-19 15.349499489695289 -13.542899940074928 -10.709799797829817 1.1437000220364142 69.25960033497918 -4.134830037664701 4.218939975311999 -15.921799332703364 21.769100375489185
2.0132299436227186 55.50680160522461 -13.97200003702892 3.596299930573637 31.29320153151959 2.0080000570160554 -5.128450099625013 17.568699668018716 0.14969099947916803 6.1092400781162794 -7.046370206772355 0.5845170237208188 -7.24883024726305 20.190599262069632 -10.686000003666907 10.741999870898194 -35.265899099987465 -18.479700054231262 -0.0 0.0 0.0 -0.0 0.0 0.0 1.6021699634840264e-13 1.160189987259413e-14 -9.72638042598558e-13 27.159299545808366 12.403399844047838 43.53549941116163 -14.951900517730506 -7.747900217084834 27.49199976782698 -0.35877398892746126 16.78989930073906 2.4303599588260147 2.5583600633948895e-09 -2.5408099614472414e-10 2.6357000213066972e-09 4.448270105634625e-09 -2.1425600372586354e-10 4.519539974936859e-09 2.5583600633948895e-09 -2.5407398898519153e-10 2.6356900820733174e-09 7.730910121524428 5.474879855648998 0.41731399283890674 2.5583600633948895e-09 -2.540359962655981e-10 2.6356900820733174e-09 2.90554006136521 0.9651829962377875 0.10290200252939893 2.558370002628269e-09 -2.5407699560328884e-10 2.6356900820733174e-09 10.278599710243157 0.7318009818271524 0.025912300303053633 2.5583499253768423e-09 -2.5407500775661294e-10 2.6356900820733174e-09 2.221669932038622 -0.7334870246959406 -0.20891999872313852 1.6015900130988412e-13 1.1605899922648853e-14 -9.729260280032183e-13 -94.10720015808194 63.6022980794302 32.22009918302534 28.343500668632252 -37.81869937775266 -80.11570107728339 2.977239972177419 -43.04119862092781 7.541409938097009 2.2088099476540156e-09 4.433569979466236e-09 2.2140200937915883e-09 3.738850166919533e-09 7.40399018395748e-09 3.879400071001412e-09 2.2088000084206362e-09 4.433569979466236e-09 2.2140399722583474e-09 -7.730910121524428 5.474879855648998 -0.41731399283890674 2.2088099476540156e-09 4.433569979466236e-09 2.2140300330249676e-09 -2.90554006136521 0.9651829962377875 -0.10290200252939893 2.2088000084206362e-09 4.433569979466236e-09 2.2140200937915883e-09 -10.278599710243157 0.7318009818271524 -0.025912300303053633 2.2088099476540156e-09 4.433569979466236e-09 2.2140200937915883e-09 -2.221669932038622 -0.7334870246959406 0.20891999872313852 -2.0321699793705798e-16 0.0 -3.882510030490358e-19 -38.20739861322891 -54.719298969464695 -20.774500181382976 -0.5914159950302078 50.59639871095907 1.1899200188715962 2.089250066391823 13.598799915789606 1.8108899756361847 2.0321699793705798e-16 0.0 3.882510030490358e-19 13.35119958196112 -13.414899633707952 -11.492300420092327 1.1630100340370981 68.82839683229794 -3.963919921610764 4.62842987973495 -15.710900166606296 22.922900326317343
2.447219930400024 56.186699867248535 -15.894000050320756 4.17060016523488 29.894201204582558 1.9244000356789803 -5.686369833109273 17.873700057858343 0.10807100164785732 6.449599930402239 -6.647020145059111 0.5341090003465083 -6.942069803051676 20.184699686174035 -10.222400059978645 10.656700199674844 -35.607599803784865 -17.54509965688903 -0.0 0.0 0.0 -0.0 0.0 0.0 -3.10212003172321e-14 4.7678500701886047e-14 -9.716650120338913e-14 26.986499174901628 12.879599779207481 44.23520106521066 -15.410699692205895 -8.151980184798312 28.435899467724184 -0.34010900291652046 16.366299506151332 2.3654498963790336 -2.566489958730045e-10 2.9755999862708424e-10 -3.164990090471939e-10 -4.490189816336314e-10 4.850080014738959e-10 -5.449600160306432e-10 -2.566489958730045e-10 2.975710063280521e-10 -3.165070101300645e-10 7.730910121524428 5.474879855648998 0.41731399283890674 -2.566499897963425e-10 2.97600997964775e-10 -3.165120045948377e-10 2.90554006136521 0.9651829962377875 0.10290200252939893 -2.56640000866796e-10 2.975679997099548e-10 -3.165070101300645e-10 10.278599710243157 0.7318009818271524 0.025912300303053633 -2.566489958730045e-10 2.9756700578661685e-10 -3.1650400351196716e-10 2.221669932038622 -0.7334870246959406 -0.20891999872313852 -3.1051398988962755e-14 4.768820091805666e-14 -9.739330062912689e-14 -88.12689825668303 64.02430131729943 25.71190049841262 28.403599503139194 -36.99279973350389 -78.67360225668357 2.9252699165564384 -42.74960076978704 7.464719720322459 -4.469079878561438e-10 -1.5127200117859396e-09 -6.652839777544247e-10 -7.475479809709737e-10 -2.5326299723758524e-09 -1.1635799888143069e-09 -4.469179767856903e-10 -1.5127299510193192e-09 -6.652679755886836e-10 -7.730910121524428 5.474879855648998 -0.41731399283890674 -4.4691101932232453e-10 -1.5127299510193192e-09 -6.652790081377349e-10 -2.90554006136521 0.9651829962377875 -0.10290200252939893 -4.46922002175209e-10 -1.5127200117859396e-09 -6.652839777544247e-10 -10.278599710243157 0.7318009818271524 -0.025912300303053633 -4.469009806966112e-10 -1.5127200117859396e-09 -6.652909849139573e-10 -2.221669932038622 -0.7334870246959406 0.20891999872313852 -2.0321699793705798e-16 0.0 -3.882510030490358e-19 -34.680599699441565 -53.70459923617843 -13.973699607821496 -0.44645499493276614 45.89660018458666 0.9929339481138435 2.3673900969901402 16.05609963480603 0.2838829923906813 2.0321699793705798e-16 0.0 3.882510030490358e-19 11.19580020067478 -12.984500385801475 -11.624100019185125 1.1236699586868228 67.90240076576264 -3.746349795128708 5.132070099885119 -15.382999860026908 24.54149977280675
2.8778699150279863 56.87369704246521 -17.817000117793214 4.9088001805406885 28.217000442561737 1.8923000675706245 -6.608540139935728 18.321599957965685 0.20134900083244384 6.778400114404776 -6.305470132310276 0.49663100531870785 -6.621490178602072 20.147999372216262 -9.698480154409062 10.518100293489653 -36.029200060493075 -16.498099959017775 -0.0 0.0 0.0 -0.0 0.0 0.0 -3.5944300860956895e-13 1.4762099569487242e-13 1.2205899817491717e-12 26.68130070957607 13.66259985905305 44.95119955061934 -15.945500089123309 -8.636570153579669 29.558398369133467 -0.3171349946325215 15.821899278355465 2.282500023673579 -4.706980001548884e-09 1.954950000059653e-09 -5.1626898763089766e-09 -8.193150206660878e-09 2.940780019060683e-09 -8.863610338374718e-09 -4.706970062315504e-09 1.9549800165444595e-09 -5.162710152345071e-09 7.730910121524428 5.474879855648998 0.41731399283890674 -4.706980001548884e-09 1.954959939293033e-09 -5.162699815542356e-09 2.90554006136521 0.9651829962377875 0.10290200252939893 -4.706970062315504e-09 1.954959939293033e-09 -5.162699815542356e-09 10.278599710243157 0.7318009818271524 0.025912300303053633 -4.706980001548884e-09 1.954950000059653e-09 -5.1626898763089766e-09 2.221669932038622 -0.7334870246959406 -0.20891999872313852 -3.595069972775912e-13 1.4762400464247757e-13 1.2203900323276685e-12 -81.51849898939895 64.0038995422486 18.38810038727222 28.428500665305766 -35.911498825620825 -76.88709797737503 2.941050001416695 -42.83840005918638 7.488009811618556 -4.808370121253913e-09 -1.271089992688141e-08 -5.7139901293124495e-09 -8.104450102565554e-09 -2.129129936392255e-08 -1.0000199841985123e-08 -4.808380060487293e-09 -1.271089992688141e-08 -5.7139901293124495e-09 -7.730910121524428 5.474879855648998 -0.41731399283890674 -4.808380060487293e-09 -1.271089992688141e-08 -5.7139901293124495e-09 -2.90554006136521 0.9651829962377875 -0.10290200252939893 -4.808380060487293e-09 -1.271089992688141e-08 -5.7139901293124495e-09 -10.278599710243157 0.7318009818271524 -0.025912300303053633 -4.8083601820205335e-09 -1.271089992688141e-08 -5.714010007779209e-09 -2.221669932038622 -0.7334870246959406 0.20891999872313852 -2.0321699793705798e-16 0.0 -3.882510030490358e-19 -31.137900105266425 -52.247398867323724 -6.250829899610644 -0.3330609947450078 40.53150025191998 0.7786039993410185 2.8107899696515006 18.141300039350273 -1.4946199871094483 2.0321699793705798e-16 0.0 3.882510030490358e-19 8.870620245868496 -12.25050008306158 -11.109699689771247 1.045409971341934 66.48150285234654 -3.5018800358176154 5.716040174863808 -14.931900016293415 26.620600818422165
